HIERARCHY
ROOT ui
{
	 OFFSET 0 0 0
	 CHANNELS 3 XPosition YPosition Z Position
	 EndSite
	 {
	 OFFSET 0 -1 0
	 }
}
ROOT li
{
	 OFFSET 0 0 0
	 CHANNELS 3 XPosition YPosition Z Position
	 EndSite
	 {
	 OFFSET 0 -1 0
	 }
}
ROOT ul
{
	 OFFSET 0 0 0
	 CHANNELS 3 XPosition YPosition Z Position
	 EndSite
	 {
	 OFFSET 0 -1 0
	 }
}
ROOT ll
{
	 OFFSET 0 0 0
	 CHANNELS 3 XPosition YPosition Z Position
	 EndSite
	 {
	 OFFSET 0 -1 0
	 }
}
ROOT tt
{
	 OFFSET 0 0 0
	 CHANNELS 3 XPosition YPosition Z Position
	 EndSite
	 {
	 OFFSET 0 -1 0
	 }
}
ROOT tb
{
	 OFFSET 0 0 0
	 CHANNELS 3 XPosition YPosition Z Position
	 EndSite
	 {
	 OFFSET 0 -1 0
	 }
}
ROOT td
{
	 OFFSET 0 0 0
	 CHANNELS 3 XPosition YPosition Z Position
	 EndSite
	 {
	 OFFSET 0 -1 0
	 }
}
ROOT v
{
	 OFFSET 0 0 0
	 CHANNELS 3 XPosition YPosition Z Position
	 EndSite
	 {
	 OFFSET 0 -1 0
	 }
}
ROOT bn
{
	 OFFSET 0 0 0
	 CHANNELS 3 XPosition YPosition Z Position
	 EndSite
	 {
	 OFFSET 0 -1 0
	 }
}
MOTION
Frames: 13
Frame Time: 0.002
0.053604061126708985	0.007411087989807129	0		0.6580966796875	-2.8161083984375	0		-0.8387612915039062	0.27962445068359376	0		-0.2676796875	-3.15949609375	0		1.6114931640625	-0.8899503173828125	0		3.034602783203125	-0.45234640502929685	0		4.3300546875	-0.06200334930419922	0		6.02873681640625	0.48884735107421873	0		-0.03082826042175293	5.98012158203125	0		
-0.033627765655517575	0.0023986709117889402	0		0.6180447387695313	-2.808762451171875	0		-0.8489053344726563	0.2805577697753906	0		-0.26377587890625	-3.1557529296875	0		1.565355224609375	-0.8885195922851562	0		2.963960693359375	-0.48758108520507815	0		4.3055986328125	-0.08386439514160156	0		6.02446875	0.4807159423828125	0		-0.047135555267333984	5.9701396484375	0		
0.0591949462890625	-0.005098290920257568	0		0.6428959350585938	-2.8143291015625	0		-0.8489928588867187	0.28032745361328126	0		-0.27168844604492187	-3.143873291015625	0		1.511975830078125	-0.9100169067382813	0		2.933632568359375	-0.5053885498046875	0		4.26921533203125	-0.10558551788330078	0		6.01925830078125	0.4715755920410156	0		-0.047240360260009766	5.96991162109375	0		
-0.0377772216796875	-0.002026611089706421	0		0.5790945434570313	-2.79970703125	0		-0.84900244140625	0.2800721130371094	0		-0.28834286499023437	-3.11889697265625	0		1.4790009765625	-0.9078135375976563	0		2.912354736328125	-0.5253418579101562	0		4.23296484375	-0.1233294677734375	0		6.016357421875	0.47938507080078124	0		-0.04727028656005859	5.9696591796875	0		
0.04227564239501953	-0.0043927388191223144	0		0.6559273681640625	-2.819028076171875	0		-0.8489296264648437	0.27979412841796875	0		-0.3001730041503906	-3.113009521484375	0		1.4060445556640624	-0.9100855712890625	0		2.849477783203125	-0.521744873046875	0		4.2098095703125	-0.14027096557617189	0		6.02031982421875	0.4710817260742188	0		-0.03304503631591797	5.9821923828125	0		
-0.029449625015258787	0.004295255184173584	0		0.5963508911132812	-2.800501708984375	0		-0.8437179565429688	0.28342791748046875	0		-0.30072625732421876	-3.093292724609375	0		1.3732244873046875	-0.9089223022460937	0		2.83114990234375	-0.55777587890625	0		4.18184912109375	-0.14916154479980467	0		6.02459912109375	0.4797616882324219	0		-0.01301219654083252	5.97462646484375	0		
0.049774219512939456	0.0019088330268859862	0		0.6386209106445313	-2.80038037109375	0		-0.8485287475585938	0.27918258666992185	0		-0.3052320861816406	-3.076536865234375	0		1.300440185546875	-0.9112283325195313	0		2.807345458984375	-0.5617418823242187	0		4.15378369140625	-0.17206376647949218	0		6.02484130859375	0.4794857177734375	0		-0.04786526107788086	5.969794921875	0		
-0.032915428161621095	7.18775987625122E-4	0		0.61201171875	-2.797330322265625	0		-0.8482006225585937	0.2788555908203125	0		-0.27673562622070313	-3.0662431640625	0		1.273710205078125	-0.9161735229492187	0		2.732372314453125	-0.5840217895507812	0		4.1219130859375	-0.1869219970703125	0		6.02516796875	0.4792016906738281	0		-0.014480337142944336	5.9760224609375	0		
0.04342138671875	-0.005647558212280274	0		0.6373726806640625	-2.80299755859375	0		-0.8518446655273437	0.2745732116699219	0		-0.3160671081542969	-3.049033203125	0		1.2521578369140625	-0.914196533203125	0		2.713640380859375	-0.5950743408203125	0		4.08709814453125	-0.20374642944335938	0		6.02145458984375	0.4699674377441406	0		-0.04720209503173828	5.96914111328125	0		
-0.03606821441650391	-0.003896188974380493	0		0.58802392578125	-2.79265087890625	0		-0.8413719482421875	0.2730927734375	0		-0.28636688232421875	-3.03576953125	0		1.1885919189453125	-0.9186533203125	0		2.692809326171875	-0.6191036987304688	0		4.072345458984375	-0.2218477020263672	0		6.0268173828125	0.460607666015625	0		-0.029636837005615233	5.97757080078125	0		
0.0556199951171875	0.004523499011993408	0		0.6574917602539062	-2.80192529296875	0		-0.8416911010742187	0.28175778198242185	0		-0.3065622253417969	-3.01982861328125	0		1.1362735595703124	-0.9102643432617188	0		2.670540283203125	-0.6071111450195312	0		4.061677490234375	-0.2390046081542969	0		6.02271484375	0.4853809814453125	0		-0.03108348274230957	5.98025634765625	0		
-0.0237353458404541	0.006271665096282959	0		0.6202787475585938	-2.791743896484375	0		-0.8560003662109374	0.2866141357421875	0		-0.28180633544921874	-3.012498291015625	0		1.106975830078125	-0.9051871948242187	0		2.6288603515625	-0.6298552856445313	0		4.04211474609375	-0.25303689575195315	0		6.02211669921875	0.469107177734375	0		-0.011593860626220703	5.973658203125	0		
0.049825016021728515	-0.0030552709102630617	0		0.6438817749023438	-2.7993857421875	0		-0.8553270263671875	0.2862711486816406	0		-0.3239098815917969	-2.99825341796875	0		1.10174169921875	-0.8994320678710938	0		2.619365966796875	-0.6430307006835938	0		4.032562744140625	-0.2701995849609375	0		6.01478955078125	0.46893307495117187	0		-0.04603498458862305	5.968798828125	0		
